<mxfile host="app.diagrams.net" agent="Mozilla/5.0 (X11; Linux x86_64) AppleWebKit/537.36 (KHTML, like Gecko) Chrome/130.0.0.0 Safari/537.36 Edg/130.0.0.0" version="24.8.4">
  <diagram id="UqtiB_08HVFXYnvLfDx0" name="Page-1">
    <mxGraphModel dx="236" dy="166" grid="1" gridSize="10" guides="1" tooltips="1" connect="1" arrows="1" fold="1" page="1" pageScale="1" pageWidth="850" pageHeight="1100" math="0" shadow="0">
      <root>
        <mxCell id="0" />
        <mxCell id="1" parent="0" />
        <mxCell id="kxU1eR2FY8rgbBVHpL4p-133" value="&lt;pre style=&quot;font-family: &amp;quot;JetBrains Mono NL&amp;quot;, &amp;quot;Fira Code&amp;quot;, Hack, Consolas, &amp;quot;Cascadia Code&amp;quot;, &amp;quot;Source Code Pro&amp;quot;, &amp;quot;Droid Sans Mono&amp;quot;, &amp;quot;monospace&amp;quot;, monospace; font-weight: 500; font-size: 15px; line-height: 27px; white-space: pre;&quot;&gt;&lt;div style=&quot;&quot;&gt;&lt;span style=&quot;background-color: rgb(255, 255, 255);&quot;&gt;1.   let x = input();&lt;/span&gt;&lt;/div&gt;&lt;div style=&quot;&quot;&gt;&lt;span style=&quot;background-color: rgb(255, 255, 255);&quot;&gt;2.   let y = input();&lt;/span&gt;&lt;/div&gt;&lt;div style=&quot;&quot;&gt;&lt;span style=&quot;background-color: rgb(255, 255, 255);&quot;&gt;3.   if x &amp;gt; y {&lt;/span&gt;&lt;/div&gt;&lt;div style=&quot;&quot;&gt;&lt;span style=&quot;background-color: rgb(255, 255, 255);&quot;&gt;4.     return ;&lt;/span&gt;&lt;/div&gt;&lt;div style=&quot;&quot;&gt;&lt;span style=&quot;background-color: rgb(255, 255, 255);&quot;&gt;     } else {&lt;/span&gt;&lt;/div&gt;&lt;div style=&quot;&quot;&gt;&lt;span style=&quot;background-color: rgb(255, 255, 255);&quot;&gt;5.     return y;&lt;/span&gt;&lt;/div&gt;&lt;/pre&gt;" style="rounded=0;whiteSpace=wrap;html=1;fontFamily=JetBrains Mono NL;align=left;" vertex="1" parent="1">
          <mxGeometry x="40" y="360" width="200" height="200" as="geometry" />
        </mxCell>
        <mxCell id="kxU1eR2FY8rgbBVHpL4p-134" value="" style="ellipse;html=1;shape=endState;fillColor=#000000;strokeColor=#ff0000;" vertex="1" parent="1">
          <mxGeometry x="440" y="600" width="40" height="40" as="geometry" />
        </mxCell>
        <mxCell id="kxU1eR2FY8rgbBVHpL4p-135" value="" style="ellipse;fillColor=strokeColor;html=1;" vertex="1" parent="1">
          <mxGeometry x="360" y="360" width="40" height="40" as="geometry" />
        </mxCell>
        <mxCell id="kxU1eR2FY8rgbBVHpL4p-137" value="1" style="ellipse;whiteSpace=wrap;html=1;aspect=fixed;" vertex="1" parent="1">
          <mxGeometry x="280" y="440" width="40" height="40" as="geometry" />
        </mxCell>
        <mxCell id="kxU1eR2FY8rgbBVHpL4p-140" value="2" style="ellipse;whiteSpace=wrap;html=1;aspect=fixed;" vertex="1" parent="1">
          <mxGeometry x="360" y="440" width="40" height="40" as="geometry" />
        </mxCell>
        <mxCell id="kxU1eR2FY8rgbBVHpL4p-141" value="3" style="ellipse;whiteSpace=wrap;html=1;aspect=fixed;" vertex="1" parent="1">
          <mxGeometry x="440" y="440" width="40" height="40" as="geometry" />
        </mxCell>
        <mxCell id="kxU1eR2FY8rgbBVHpL4p-142" value="4" style="ellipse;whiteSpace=wrap;html=1;aspect=fixed;" vertex="1" parent="1">
          <mxGeometry x="400" y="530" width="40" height="40" as="geometry" />
        </mxCell>
        <mxCell id="kxU1eR2FY8rgbBVHpL4p-143" value="5" style="ellipse;whiteSpace=wrap;html=1;aspect=fixed;" vertex="1" parent="1">
          <mxGeometry x="480" y="530" width="40" height="40" as="geometry" />
        </mxCell>
        <mxCell id="kxU1eR2FY8rgbBVHpL4p-147" value="" style="endArrow=classic;html=1;rounded=0;entryX=0;entryY=0.5;entryDx=0;entryDy=0;exitX=1;exitY=0.5;exitDx=0;exitDy=0;" edge="1" parent="1" source="kxU1eR2FY8rgbBVHpL4p-140" target="kxU1eR2FY8rgbBVHpL4p-141">
          <mxGeometry width="50" height="50" relative="1" as="geometry">
            <mxPoint x="280" y="620" as="sourcePoint" />
            <mxPoint x="330" y="570" as="targetPoint" />
          </mxGeometry>
        </mxCell>
        <mxCell id="kxU1eR2FY8rgbBVHpL4p-148" value="" style="html=1;verticalAlign=bottom;labelBackgroundColor=none;endArrow=block;endFill=1;dashed=1;rounded=0;exitX=0.032;exitY=0.717;exitDx=0;exitDy=0;entryX=0.5;entryY=0;entryDx=0;entryDy=0;exitPerimeter=0;" edge="1" parent="1" source="kxU1eR2FY8rgbBVHpL4p-135" target="kxU1eR2FY8rgbBVHpL4p-137">
          <mxGeometry width="160" relative="1" as="geometry">
            <mxPoint x="210" y="689.71" as="sourcePoint" />
            <mxPoint x="270" y="480" as="targetPoint" />
          </mxGeometry>
        </mxCell>
        <mxCell id="kxU1eR2FY8rgbBVHpL4p-149" value="" style="html=1;verticalAlign=bottom;labelBackgroundColor=none;endArrow=block;endFill=1;dashed=1;rounded=0;exitX=0.5;exitY=1;exitDx=0;exitDy=0;entryX=0.5;entryY=0;entryDx=0;entryDy=0;" edge="1" parent="1" source="kxU1eR2FY8rgbBVHpL4p-135" target="kxU1eR2FY8rgbBVHpL4p-140">
          <mxGeometry width="160" relative="1" as="geometry">
            <mxPoint x="371" y="399" as="sourcePoint" />
            <mxPoint x="310" y="450" as="targetPoint" />
          </mxGeometry>
        </mxCell>
        <mxCell id="kxU1eR2FY8rgbBVHpL4p-150" value="" style="html=1;verticalAlign=bottom;labelBackgroundColor=none;endArrow=block;endFill=1;dashed=1;rounded=0;exitX=1.001;exitY=0.634;exitDx=0;exitDy=0;entryX=0.5;entryY=0;entryDx=0;entryDy=0;exitPerimeter=0;" edge="1" parent="1" source="kxU1eR2FY8rgbBVHpL4p-135" target="kxU1eR2FY8rgbBVHpL4p-141">
          <mxGeometry width="160" relative="1" as="geometry">
            <mxPoint x="390" y="410" as="sourcePoint" />
            <mxPoint x="390" y="450" as="targetPoint" />
          </mxGeometry>
        </mxCell>
        <mxCell id="kxU1eR2FY8rgbBVHpL4p-151" value="" style="html=1;verticalAlign=bottom;labelBackgroundColor=none;endArrow=block;endFill=1;dashed=1;rounded=0;exitX=0;exitY=1;exitDx=0;exitDy=0;entryX=0.5;entryY=0;entryDx=0;entryDy=0;" edge="1" parent="1" source="kxU1eR2FY8rgbBVHpL4p-141" target="kxU1eR2FY8rgbBVHpL4p-142">
          <mxGeometry width="160" relative="1" as="geometry">
            <mxPoint x="410" y="395" as="sourcePoint" />
            <mxPoint x="470" y="450" as="targetPoint" />
          </mxGeometry>
        </mxCell>
        <mxCell id="kxU1eR2FY8rgbBVHpL4p-152" value="" style="html=1;verticalAlign=bottom;labelBackgroundColor=none;endArrow=block;endFill=1;dashed=1;rounded=0;exitX=1;exitY=1;exitDx=0;exitDy=0;entryX=0.5;entryY=0;entryDx=0;entryDy=0;" edge="1" parent="1" source="kxU1eR2FY8rgbBVHpL4p-141" target="kxU1eR2FY8rgbBVHpL4p-143">
          <mxGeometry width="160" relative="1" as="geometry">
            <mxPoint x="456" y="484" as="sourcePoint" />
            <mxPoint x="430" y="530" as="targetPoint" />
          </mxGeometry>
        </mxCell>
        <mxCell id="kxU1eR2FY8rgbBVHpL4p-156" value="" style="endArrow=classic;html=1;rounded=0;entryX=0;entryY=0.5;entryDx=0;entryDy=0;exitX=0.5;exitY=1;exitDx=0;exitDy=0;edgeStyle=orthogonalEdgeStyle;curved=1;" edge="1" parent="1" source="kxU1eR2FY8rgbBVHpL4p-137" target="kxU1eR2FY8rgbBVHpL4p-142">
          <mxGeometry width="50" height="50" relative="1" as="geometry">
            <mxPoint x="270" y="510" as="sourcePoint" />
            <mxPoint x="370" y="570" as="targetPoint" />
          </mxGeometry>
        </mxCell>
        <mxCell id="kxU1eR2FY8rgbBVHpL4p-157" value="" style="endArrow=classic;html=1;rounded=0;entryX=0;entryY=0.5;entryDx=0;entryDy=0;exitX=1;exitY=1;exitDx=0;exitDy=0;edgeStyle=orthogonalEdgeStyle;curved=1;" edge="1" parent="1" source="kxU1eR2FY8rgbBVHpL4p-140" target="kxU1eR2FY8rgbBVHpL4p-143">
          <mxGeometry width="50" height="50" relative="1" as="geometry">
            <mxPoint x="360" y="500" as="sourcePoint" />
            <mxPoint x="460" y="560" as="targetPoint" />
          </mxGeometry>
        </mxCell>
        <mxCell id="kxU1eR2FY8rgbBVHpL4p-160" value="" style="html=1;verticalAlign=bottom;labelBackgroundColor=none;endArrow=block;endFill=1;dashed=1;rounded=0;exitX=0.5;exitY=1;exitDx=0;exitDy=0;entryX=0;entryY=0;entryDx=0;entryDy=0;" edge="1" parent="1" source="kxU1eR2FY8rgbBVHpL4p-142" target="kxU1eR2FY8rgbBVHpL4p-134">
          <mxGeometry width="160" relative="1" as="geometry">
            <mxPoint x="371" y="640" as="sourcePoint" />
            <mxPoint x="345" y="726" as="targetPoint" />
          </mxGeometry>
        </mxCell>
        <mxCell id="kxU1eR2FY8rgbBVHpL4p-161" value="" style="html=1;verticalAlign=bottom;labelBackgroundColor=none;endArrow=block;endFill=1;dashed=1;rounded=0;exitX=0.5;exitY=1;exitDx=0;exitDy=0;entryX=1;entryY=0;entryDx=0;entryDy=0;" edge="1" parent="1" source="kxU1eR2FY8rgbBVHpL4p-143" target="kxU1eR2FY8rgbBVHpL4p-134">
          <mxGeometry width="160" relative="1" as="geometry">
            <mxPoint x="430" y="610" as="sourcePoint" />
            <mxPoint x="456" y="656" as="targetPoint" />
          </mxGeometry>
        </mxCell>
        <mxCell id="kxU1eR2FY8rgbBVHpL4p-162" value="" style="html=1;verticalAlign=bottom;labelBackgroundColor=none;endArrow=block;endFill=1;dashed=1;rounded=0;" edge="1" parent="1">
          <mxGeometry width="160" relative="1" as="geometry">
            <mxPoint x="280" y="694.83" as="sourcePoint" />
            <mxPoint x="400" y="694.83" as="targetPoint" />
          </mxGeometry>
        </mxCell>
        <mxCell id="kxU1eR2FY8rgbBVHpL4p-163" value="Phụ thuộc luồng điều khiển" style="text;strokeColor=none;align=center;fillColor=none;html=1;verticalAlign=middle;whiteSpace=wrap;rounded=0;" vertex="1" parent="1">
          <mxGeometry x="420" y="680" width="150" height="30" as="geometry" />
        </mxCell>
        <mxCell id="kxU1eR2FY8rgbBVHpL4p-165" value="Phụ thuộc luồng dữ liệu" style="text;strokeColor=none;align=center;fillColor=none;html=1;verticalAlign=middle;whiteSpace=wrap;rounded=0;" vertex="1" parent="1">
          <mxGeometry x="420" y="710" width="140" height="30" as="geometry" />
        </mxCell>
        <mxCell id="kxU1eR2FY8rgbBVHpL4p-166" value="" style="endArrow=classic;html=1;rounded=0;exitX=1;exitY=0.5;exitDx=0;exitDy=0;" edge="1" parent="1">
          <mxGeometry width="50" height="50" relative="1" as="geometry">
            <mxPoint x="280" y="720" as="sourcePoint" />
            <mxPoint x="400" y="720" as="targetPoint" />
          </mxGeometry>
        </mxCell>
        <mxCell id="kxU1eR2FY8rgbBVHpL4p-167" value="" style="endArrow=classic;html=1;rounded=0;entryX=0.5;entryY=1;entryDx=0;entryDy=0;exitX=0.5;exitY=1;exitDx=0;exitDy=0;edgeStyle=orthogonalEdgeStyle;curved=1;" edge="1" parent="1" source="kxU1eR2FY8rgbBVHpL4p-137" target="kxU1eR2FY8rgbBVHpL4p-141">
          <mxGeometry width="50" height="50" relative="1" as="geometry">
            <mxPoint x="240" y="580" as="sourcePoint" />
            <mxPoint x="340" y="640" as="targetPoint" />
            <Array as="points">
              <mxPoint x="300" y="510" />
              <mxPoint x="460" y="510" />
            </Array>
          </mxGeometry>
        </mxCell>
      </root>
    </mxGraphModel>
  </diagram>
</mxfile>
